# xmcd
#
# Track frame offsets: 
#        150
#        24950
#        49830
#        69215
#        78752
#        82947
#        101040
#        117422
#        129202
#        150662
#        164545
#        181032
#
# Disc length: 2650 seconds
#
# Revision: 5
# Processed by: cddbd v1.5.2PL0 Copyright (c) Steve Scherf et al.
# Submitted via: ExactAudioCopy v1.0b3
#
DISCID=830a580c
DTITLE=S.E.N.S - KAISHIN SILK ROAD OF THE SEA
DYEAR=1988
DGENRE=Soundtrack
TTITLE0=海神
TTITLE1=オリンポス (Olympus)
TTITLE2=AMPHORA ~地中海の壺~ 
TTITLE3=コーチン (Cochin)
TTITLE4=深海
TTITLE5=Sigiriya Lady
TTITLE6=南十字星
TTITLE7=モスクへの行進  
TTITLE8=ボスポラス (Bosporus)
TTITLE9=ファルーカ (Felucca)
TTITLE10=KAGERO
TTITLE11=アフロディーテ (Aphrodite)
EXTD=YEAR: 1988
EXTT0=
EXTT1=
EXTT2=
EXTT3=
EXTT4=
EXTT5=
EXTT6=
EXTT7=
EXTT8=
EXTT9=
EXTT10=
EXTT11=
PLAYORDER=
